<svg xmlns="http://www.w3.org/2000/svg" width="1500" height="816" viewBox="0 0 1500 816">
  <defs>
    <marker id="arrow" markerWidth="10" markerHeight="10" refX="8" refY="3" orient="auto" markerUnits="strokeWidth">
      <path d="M0,0 L0,6 L9,3 z" fill="#1f2937"></path>
    </marker>
    <marker id="arrowStart" markerWidth="10" markerHeight="10" refX="1" refY="3" orient="auto" markerUnits="strokeWidth">
      <path d="M9,0 L9,6 L0,3 z" fill="#1f2937"></path>
    </marker>
    <marker id="arrowTeal" markerWidth="10" markerHeight="10" refX="8" refY="3" orient="auto" markerUnits="strokeWidth">
      <path d="M0,0 L0,6 L9,3 z" fill="#0891b2"></path>
    </marker>
    <linearGradient id="geminiGrad" x1="0%" y1="0%" x2="100%" y2="100%">
      <stop offset="0%" stop-color="#4285F4"></stop>
      <stop offset="50%" stop-color="#9B72CB"></stop>
      <stop offset="100%" stop-color="#D96570"></stop>
    </linearGradient>

<symbol id="ic-flutter" viewBox="0 0 28 28">
      <path d="M3,17 L17,3 L26,3 L12,17 Z" fill="#02569B"></path>
      <path d="M12,17 L17,22 L26,22 L17,13 Z" fill="#13B9FD"></path>
      <path d="M12,17 L17,22 L12,27 L7,22 Z" fill="#02569B"></path>
    </symbol>
    <symbol id="ic-react" viewBox="0 0 28 28">
      <g fill="none" stroke="#149ECA" stroke-width="1.8">
        <ellipse cx="14" cy="14" rx="12.5" ry="5"></ellipse>
        <ellipse cx="14" cy="14" rx="12.5" ry="5" transform="rotate(60 14 14)"></ellipse>
        <ellipse cx="14" cy="14" rx="12.5" ry="5" transform="rotate(120 14 14)"></ellipse>
      </g>
      <circle cx="14" cy="14" r="2.6" fill="#149ECA"></circle>
    </symbol>
    <symbol id="ic-nest" viewBox="0 0 28 28">
      <polygon points="14,1.5 25.5,7.75 25.5,20.25 14,26.5 2.5,20.25 2.5,7.75" fill="#E0234E"></polygon>
      <text x="14" y="19" text-anchor="middle" font-family="Arial" font-size="13" font-weight="700" fill="#ffffff">N</text>
    </symbol>
    <symbol id="ic-postgres" viewBox="0 0 28 28">
      <circle cx="14" cy="14" r="13" fill="#336791"></circle>
      <ellipse cx="12.5" cy="16.5" rx="7" ry="5" fill="#ffffff" opacity="0.92"></ellipse>
      <circle cx="19.5" cy="11.5" r="3" fill="#ffffff" opacity="0.92"></circle>
    </symbol>
    <symbol id="ic-redis" viewBox="0 0 28 28">
      <g fill="#DC382D">
        <polygon points="14,3 24,8 14,13 4,8"></polygon>
        <polygon points="14,12 24,17 14,22 4,17" opacity="0.85"></polygon>
        <polygon points="14,17 24,22 14,27 4,22" opacity="0.7"></polygon>
      </g>
    </symbol>
    <symbol id="ic-cloudflare" viewBox="0 0 28 28">
      <path d="M6,20 a6,6 0 0 1 0.6,-11.97 a8,8 0 0 1 15.2,2.77 a5,5 0 0 1 -0.8,9.2 Z" fill="#F38020"></path>
    </symbol>
    <symbol id="ic-gemini" viewBox="0 0 28 28">
      <path d="M14,2 L17,11 L26,14 L17,17 L14,26 L11,17 L2,14 L11,11 Z" fill="url(#geminiGrad)"></path>
    </symbol>
    <symbol id="ic-google" viewBox="0 0 28 28">
      <path d="M14,1 A13,13 0 0 1 27,14 L20,14 A6,6 0 0 0 14,8 Z" fill="#4285F4"></path>
      <path d="M27,14 A13,13 0 0 1 14,27 L14,20 A6,6 0 0 0 20,14 Z" fill="#34A853"></path>
      <path d="M14,27 A13,13 0 0 1 1,14 L8,14 A6,6 0 0 0 14,20 Z" fill="#FBBC05"></path>
      <path d="M1,14 A13,13 0 0 1 14,1 L14,8 A6,6 0 0 0 8,14 Z" fill="#EA4335"></path>
    </symbol>
    <symbol id="ic-firebase" viewBox="0 0 28 28">
      <path d="M9,26 C5,20 6,12 12,3 C12,9 15,10 16,7 C19,11 20,17 16,22 C18,20 19,17 18,14 C21,18 20,23 16,26 C13,28 11,28 9,26 Z" fill="#FFA000"></path>
    </symbol>
    <symbol id="ic-resend" viewBox="0 0 28 28">
      <path d="M3,7 L25,3 L15,25 L12,15 L3,7 Z" fill="#111111"></path>
    </symbol>
    <symbol id="ic-ga4" viewBox="0 0 28 28">
      <rect x="4" y="16" width="5" height="10" fill="#F9AB00"></rect>
      <rect x="12" y="9" width="5" height="17" fill="#E37400"></rect>
      <circle cx="22.5" cy="8.5" r="4" fill="#4285F4"></circle>
    </symbol>
    <symbol id="ic-observability" viewBox="0 0 28 28">
      <path d="M14,2 C9,6 8,11 11,15 C9,15 7,17 8,21 C9,25 13,27 17,26 C22,25 24,20 22,16 C25,17 26,14 24,11 C23,13 21,13 21,11 C21,8 18,4 14,2 Z" fill="#F46800"></path>
    </symbol>
    <symbol id="ic-auth" viewBox="0 0 28 28">
      <g fill="none" stroke="#334155" stroke-width="1.8">
        <rect x="6" y="12" width="16" height="12" rx="2"></rect>
        <path d="M9,12 V8 a5,5 0 0 1 10,0 v4"></path>
      </g>
    </symbol>
    <symbol id="ic-content" viewBox="0 0 28 28">
      <g fill="none" stroke="#334155" stroke-width="1.8">
        <path d="M4,6 h9 v18 h-9 a2,2 0 0 1 -2,-2 v-14 a2,2 0 0 1 2,-2 z"></path>
        <path d="M24,6 h-9 v18 h9 a2,2 0 0 0 2,-2 v-14 a2,2 0 0 0 -2,-2 z"></path>
      </g>
    </symbol>
    <symbol id="ic-games" viewBox="0 0 28 28">
      <g fill="none" stroke="#334155" stroke-width="1.8">
        <rect x="3" y="10" width="22" height="12" rx="6"></rect>
        <line x1="7" y1="16" x2="11" y2="16"></line>
        <line x1="9" y1="14" x2="9" y2="18"></line>
        <circle cx="19" cy="14.5" r="1.3" fill="#334155"></circle>
        <circle cx="22" cy="17.5" r="1.3" fill="#334155"></circle>
      </g>
    </symbol>
    <symbol id="ic-progress" viewBox="0 0 28 28">
      <polyline points="4,22 10,14 15,18 24,6" fill="none" stroke="#334155" stroke-width="1.8"></polyline>
    </symbol>
    <symbol id="ic-gift" viewBox="0 0 28 28">
      <g fill="none" stroke="#334155" stroke-width="1.8">
        <rect x="4" y="12" width="20" height="14"></rect>
        <line x1="14" y1="12" x2="14" y2="26"></line>
        <path d="M14,12 C10,4 4,8 8,12 M14,12 C18,4 24,8 20,12"></path>
      </g>
    </symbol>
    <symbol id="ic-support" viewBox="0 0 28 28">
      <g fill="none" stroke="#334155" stroke-width="1.8">
        <circle cx="14" cy="14" r="5"></circle>
        <path d="M14,3 v3 M14,22 v3 M3,14 h3 M22,14 h3 M6,6 l2,2 M20,20 l2,2 M6,22 l2,-2 M20,8 l2,-2"></path>
      </g>
    </symbol>
  </defs>

  <rect x="0" y="0" width="1500" height="816" fill="#ffffff"></rect>

  <text x="750" y="26" text-anchor="middle" font-family="Arial, sans-serif" font-weight="800" fill="#0f172a" style="font-size:18px">[Sơ đồ kiến trúc hệ thống tổng thể]</text>
  <text x="750" y="44" text-anchor="middle" font-family="Arial, sans-serif" font-weight="700" fill="#1f2937" style="font-size:14px">Mela App ↔ NestJS Backend API (REST + WebSocket)</text>

<rect x="12" y="52" width="440" height="380" fill="#fbfdff" stroke="#94a3b8" stroke-width="1.5" stroke-dasharray="6 4" rx="14"></rect>
  <text x="24" y="74" font-family="Arial, sans-serif" font-weight="800" font-size="12" fill="#334155">CLIENT APPLICATIONS</text>

  <rect x="24" y="90" width="416" height="155" fill="#eef6ff" stroke="#2563eb" stroke-width="1.8" rx="8"></rect>
  <use href="#ic-flutter" x="48" y="112" width="32" height="32"></use>
  <text x="92" y="133" font-family="Arial, sans-serif" font-weight="700" font-size="13" fill="#0f172a">Flutter App</text>
  <text x="48" y="168" font-family="Arial, sans-serif" font-size="11" fill="#475569">Mobile learning experience</text>
  <text x="48" y="190" font-family="Arial, sans-serif" font-size="11" fill="#475569">Dart • MobX • Socket.IO</text>

  <rect x="24" y="275" width="416" height="155" fill="#eef6ff" stroke="#2563eb" stroke-width="1.8" rx="8"></rect>
  <use href="#ic-react" x="48" y="297" width="32" height="32"></use>
  <text x="92" y="318" font-family="Arial, sans-serif" font-weight="700" font-size="13" fill="#0f172a">Admin / Ops Client</text>
  <text x="48" y="353" font-family="Arial, sans-serif" font-size="11" fill="#475569">Admin REST + SSE views</text>
  <text x="48" y="375" font-family="Arial, sans-serif" font-size="11" fill="#475569">React • TanStack Query</text>

  <rect x="1048" y="52" width="440" height="380" fill="#fbfdff" stroke="#94a3b8" stroke-width="1.5" stroke-dasharray="6 4" rx="14"></rect>
  <text x="1060" y="74" font-family="Arial, sans-serif" font-weight="800" font-size="12" fill="#334155">CLOUD AND EXTERNAL SERVICES</text>

  <rect x="1060" y="90" width="416" height="50" fill="#fff7ed" stroke="#ea580c" stroke-width="1.6" rx="8"></rect>
  <use href="#ic-gemini" x="1072" y="103" width="24" height="24"></use>
  <text x="1104" y="111" font-family="Arial, sans-serif" font-weight="700" font-size="12" fill="#1f2937">Gemini AI</text>
  <text x="1104" y="128" font-family="Arial, sans-serif" font-size="11" fill="#475569">Solver + generation</text>

  <rect x="1060" y="146" width="416" height="50" fill="#fff7ed" stroke="#ea580c" stroke-width="1.6" rx="8"></rect>
  <use href="#ic-google" x="1072" y="159" width="24" height="24"></use>
  <text x="1104" y="167" font-family="Arial, sans-serif" font-weight="700" font-size="12" fill="#1f2937">Google OAuth</text>
  <text x="1104" y="184" font-family="Arial, sans-serif" font-size="11" fill="#475569">Mobile authentication</text>

  <rect x="1060" y="202" width="416" height="50" fill="#fff7ed" stroke="#ea580c" stroke-width="1.6" rx="8"></rect>
  <use href="#ic-firebase" x="1072" y="215" width="24" height="24"></use>
  <text x="1104" y="223" font-family="Arial, sans-serif" font-weight="700" font-size="12" fill="#1f2937">Firebase FCM</text>
  <text x="1104" y="240" font-family="Arial, sans-serif" font-size="11" fill="#475569">Push notifications</text>

  <rect x="1060" y="258" width="416" height="50" fill="#fff7ed" stroke="#ea580c" stroke-width="1.6" rx="8"></rect>
  <use href="#ic-resend" x="1072" y="271" width="24" height="24"></use>
  <text x="1104" y="279" font-family="Arial, sans-serif" font-weight="700" font-size="12" fill="#1f2937">Resend Email</text>
  <text x="1104" y="296" font-family="Arial, sans-serif" font-size="11" fill="#475569">OTP email</text>

  <rect x="1060" y="314" width="416" height="50" fill="#fff7ed" stroke="#ea580c" stroke-width="1.6" rx="8"></rect>
  <use href="#ic-cloudflare" x="1072" y="327" width="24" height="24"></use>
  <text x="1104" y="335" font-family="Arial, sans-serif" font-weight="700" font-size="12" fill="#1f2937">Cloudflare R2 / S3</text>
  <text x="1104" y="352" font-family="Arial, sans-serif" font-size="11" fill="#475569">Media storage</text>

  <rect x="1060" y="370" width="416" height="50" fill="#fff7ed" stroke="#ea580c" stroke-width="1.6" rx="8"></rect>
  <use href="#ic-ga4" x="1072" y="383" width="24" height="24"></use>
  <text x="1104" y="391" font-family="Arial, sans-serif" font-weight="700" font-size="12" fill="#1f2937">Google Analytics 4</text>
  <text x="1104" y="408" font-family="Arial, sans-serif" font-size="11" fill="#475569">Mobile + product analytics</text>

<rect x="12" y="448" width="900" height="308" fill="#fbfdff" stroke="#94a3b8" stroke-width="1.5" stroke-dasharray="6 4" rx="14"></rect>
  <text x="24" y="470" font-family="Arial, sans-serif" font-weight="800" font-size="12" fill="#334155">BACKEND SERVER</text>

  <rect x="24" y="486" width="876" height="258" fill="#f8fafc" stroke="#334155" stroke-width="1.6" rx="8"></rect>
  <use href="#ic-nest" x="40" y="494" width="26" height="26"></use>
  <text x="462" y="510" text-anchor="middle" font-family="Arial, sans-serif" font-weight="700" fill="#1f2937">mela-api: NestJS 11 Backend</text>
  <text x="462" y="530" text-anchor="middle" font-family="Arial, sans-serif" font-weight="700" font-size="12" fill="#1f2937">Global Zod validation, serialization, auth guards, throttling, logging</text>

  <rect x="36" y="546" width="276" height="87" fill="#f8fafc" stroke="#334155" stroke-width="1.6" rx="8"></rect>
  <use href="#ic-auth" x="164" y="560" width="20" height="20"></use>
  <text x="174" y="596" text-anchor="middle" font-family="Arial, sans-serif" font-size="11" fill="#475569">Auth, Users, Profiles, OTP</text>

  <rect x="324" y="546" width="276" height="87" fill="#f8fafc" stroke="#334155" stroke-width="1.6" rx="8"></rect>
  <use href="#ic-content" x="452" y="560" width="20" height="20"></use>
  <text x="462" y="596" text-anchor="middle" font-family="Arial, sans-serif" font-size="11" fill="#475569">Learning Content</text>
  <text x="462" y="616" text-anchor="middle" font-family="Arial, sans-serif" font-size="11" fill="#475569">Topics → Classes → Sections</text>

  <rect x="612" y="546" width="276" height="87" fill="#f8fafc" stroke="#334155" stroke-width="1.6" rx="8"></rect>
  <use href="#ic-games" x="740" y="560" width="20" height="20"></use>
  <text x="750" y="596" text-anchor="middle" font-family="Arial, sans-serif" font-size="11" fill="#475569">Game Modes</text>
  <text x="750" y="616" text-anchor="middle" font-family="Arial, sans-serif" font-size="11" fill="#475569">PVP, Training, Time Attack</text>

  <rect x="36" y="645" width="276" height="87" fill="#f8fafc" stroke="#334155" stroke-width="1.6" rx="8"></rect>
  <use href="#ic-progress" x="164" y="659" width="20" height="20"></use>
  <text x="174" y="695" text-anchor="middle" font-family="Arial, sans-serif" font-size="11" fill="#475569">Progress, Attempts,</text>
  <text x="174" y="715" text-anchor="middle" font-family="Arial, sans-serif" font-size="11" fill="#475569">Mastery, Leaderboard</text>

  <rect x="324" y="645" width="276" height="87" fill="#f8fafc" stroke="#334155" stroke-width="1.6" rx="8"></rect>
  <use href="#ic-gift" x="452" y="659" width="20" height="20"></use>
  <text x="462" y="695" text-anchor="middle" font-family="Arial, sans-serif" font-size="11" fill="#475569">Gamification</text>
  <text x="462" y="715" text-anchor="middle" font-family="Arial, sans-serif" font-size="11" fill="#475569">Rewards, Gacha, Shop, Badges</text>

  <rect x="612" y="645" width="276" height="87" fill="#f8fafc" stroke="#334155" stroke-width="1.6" rx="8"></rect>
  <use href="#ic-support" x="740" y="659" width="20" height="20"></use>
  <text x="750" y="695" text-anchor="middle" font-family="Arial, sans-serif" font-size="11" fill="#475569">AI, Media, Notifications,</text>
  <text x="750" y="715" text-anchor="middle" font-family="Arial, sans-serif" font-size="11" fill="#475569">Feedback, Reports, Admin</text>

  <rect x="932" y="448" width="556" height="308" fill="#fbfdff" stroke="#94a3b8" stroke-width="1.5" stroke-dasharray="6 4" rx="14"></rect>
  <text x="944" y="470" font-family="Arial, sans-serif" font-weight="800" font-size="12" fill="#334155">DATA INFRASTRUCTURE</text>

  <rect x="944" y="486" width="264" height="258" fill="#f7fee7" stroke="#65a30d" stroke-width="1.6" rx="8"></rect>
  <use href="#ic-postgres" x="1059" y="574" width="34" height="34"></use>
  <text x="1076" y="628" text-anchor="middle" font-family="Arial, sans-serif" font-weight="700" font-size="12" fill="#1f2937">PostgreSQL</text>
  <text x="1076" y="646" text-anchor="middle" font-family="Arial, sans-serif" font-size="11" fill="#475569">Prisma models</text>

  <rect x="1220" y="486" width="264" height="258" fill="#f7fee7" stroke="#65a30d" stroke-width="1.6" rx="8"></rect>
  <use href="#ic-redis" x="1335" y="574" width="34" height="34"></use>
  <text x="1352" y="628" text-anchor="middle" font-family="Arial, sans-serif" font-weight="700" font-size="12" fill="#1f2937">Redis</text>
  <text x="1352" y="646" text-anchor="middle" font-family="Arial, sans-serif" font-size="11" fill="#475569">Cache, Bull queues</text>

<rect x="12" y="772" width="1476" height="36" fill="#f8fafc" stroke="#334155" stroke-width="1.6" rx="8"></rect>
  <use href="#ic-observability" x="24" y="782" width="16" height="16"></use>
  <text x="52" y="794" font-family="Arial, sans-serif" font-weight="700" font-size="12" fill="#1f2937">DEPLOYMENT AND MONITORING — Observability: Pino logs → Loki / Grafana dashboards</text>

<polyline points="452,170 490,170 490,448" fill="none" stroke="#1f2937" stroke-width="2" marker-end="url(#arrow)" style="marker-start:url(#arrowStart)"></polyline>

  <polyline points="452,355 530,355 530,448" fill="none" stroke="#1f2937" stroke-width="2" marker-end="url(#arrow)" style="marker-start:url(#arrowStart)"></polyline>

<polyline points="912,650 932,650" fill="none" stroke="#1f2937" stroke-width="2" marker-end="url(#arrow)"></polyline>

<polyline points="912,600 922,600 922,283 1048,283" fill="none" stroke="#1f2937" stroke-width="2" marker-end="url(#arrow)"></polyline>

<polyline points="452,110 700,110 700,171 1048,171" fill="none" stroke="#0891b2" stroke-width="2" stroke-dasharray="5 4" marker-end="url(#arrowTeal)"></polyline>
  <text x="704" y="100" style="font-size:11px" font-family="Arial, sans-serif" font-weight="600" fill="#0891b2">Google Sign-In</text>

  <polyline points="1048,238 700,238 700,210 452,210" fill="none" stroke="#0891b2" stroke-width="2" stroke-dasharray="5 4" marker-end="url(#arrowTeal)"></polyline>
  <text x="704" y="200" style="font-size:11px" font-family="Arial, sans-serif" font-weight="600" fill="#0891b2">Push Messages</text>

  <polyline points="452,310 700,310 700,339 1048,339" fill="none" stroke="#0891b2" stroke-width="2" stroke-dasharray="5 4" marker-end="url(#arrowTeal)"></polyline>
  <text x="704" y="300" style="font-size:11px" font-family="Arial, sans-serif" font-weight="600" fill="#0891b2">Presigned Upload</text>

  <polyline points="452,410 700,410 700,395 1048,395" fill="none" stroke="#0891b2" stroke-width="2" stroke-dasharray="5 4" marker-end="url(#arrowTeal)"></polyline>
  <text x="704" y="385" style="font-size:11px" font-family="Arial, sans-serif" font-weight="600" fill="#0891b2">Analytics Events</text>

<polyline points="462,744 462,772" fill="none" stroke="#1f2937" stroke-width="2" marker-end="url(#arrow)"></polyline>
</svg>